name rise38.3101peak57.3503fall81.6963.mot
datacolumns 19
datarows 12
range 14.60161700000000 14.61994900000000
endheader
time	ground_force1_vx	ground_force1_vy	ground_force1_vz	ground_force1_px	ground_force1_py	ground_force1_pz	ground_force2_vx	ground_force2_vy	ground_force2_vz	ground_force2_px	ground_force2_py	ground_force2_pz	ground_torque1_x	ground_torque1_y	ground_torque1_z	ground_torque2_x	ground_torque2_y	ground_torque2_z	
14.60161700000000	57.26839200000000	748.52343900000005	56.46078000000000	0.35996100000000	0.00000000000000	0.10567000000000	0.00000000000000	0.00000000000000	0.00000000000000	0.00000000000000	0.00000000000000	0.00000000000000	0.00000000000000	26.13958000000000	0.00000000000000	0.00000000000000	0.00000000000000	0.00000000000000	
14.60328200000000	56.57395200000000	750.70639700000004	56.61589100000000	0.35841100000000	0.00000000000000	0.10571100000000	0.00000000000000	0.00000000000000	0.00000000000000	0.00000000000000	0.00000000000000	0.00000000000000	0.00000000000000	26.20492400000000	0.00000000000000	0.00000000000000	0.00000000000000	0.00000000000000	
14.60494800000000	55.88945100000000	752.82837199999994	56.77321100000000	0.35689400000000	0.00000000000000	0.10575100000000	0.00000000000000	0.00000000000000	0.00000000000000	0.00000000000000	0.00000000000000	0.00000000000000	0.00000000000000	26.27223600000000	0.00000000000000	0.00000000000000	0.00000000000000	0.00000000000000	
14.60663700000000	55.21541500000000	754.88713099999995	56.93254400000000	0.35541100000000	0.00000000000000	0.10579100000000	0.00000000000000	0.00000000000000	0.00000000000000	0.00000000000000	0.00000000000000	0.00000000000000	0.00000000000000	26.34142900000000	0.00000000000000	0.00000000000000	0.00000000000000	0.00000000000000	
14.60828500000000	54.55227700000000	756.88038200000005	57.09360300000000	0.35396200000000	0.00000000000000	0.10583000000000	0.00000000000000	0.00000000000000	0.00000000000000	0.00000000000000	0.00000000000000	0.00000000000000	0.00000000000000	26.41236100000000	0.00000000000000	0.00000000000000	0.00000000000000	0.00000000000000	
14.60994900000000	53.90037900000000	758.80579000000000	57.25602200000000	0.35254800000000	0.00000000000000	0.10586800000000	0.00000000000000	0.00000000000000	0.00000000000000	0.00000000000000	0.00000000000000	0.00000000000000	0.00000000000000	26.48484200000000	0.00000000000000	0.00000000000000	0.00000000000000	0.00000000000000	
14.61162100000000	53.25997200000000	760.66099499999996	57.41935600000000	0.35117000000000	0.00000000000000	0.10590500000000	0.00000000000000	0.00000000000000	0.00000000000000	0.00000000000000	0.00000000000000	0.00000000000000	0.00000000000000	26.55863200000000	0.00000000000000	0.00000000000000	0.00000000000000	0.00000000000000	
14.61328600000000	52.63122500000000	762.44363599999997	57.58308900000000	0.34982800000000	0.00000000000000	0.10594200000000	0.00000000000000	0.00000000000000	0.00000000000000	0.00000000000000	0.00000000000000	0.00000000000000	0.00000000000000	26.63345100000000	0.00000000000000	0.00000000000000	0.00000000000000	0.00000000000000	
14.61495300000000	52.01422400000000	764.15136800000005	57.74663900000000	0.34852200000000	0.00000000000000	0.10597700000000	0.00000000000000	0.00000000000000	0.00000000000000	0.00000000000000	0.00000000000000	0.00000000000000	0.00000000000000	26.70897600000000	0.00000000000000	0.00000000000000	0.00000000000000	0.00000000000000	
14.61661700000000	51.40897900000000	765.78188000000000	57.90936700000000	0.34725300000000	0.00000000000000	0.10601200000000	0.00000000000000	0.00000000000000	0.00000000000000	0.00000000000000	0.00000000000000	0.00000000000000	0.00000000000000	26.78485100000000	0.00000000000000	0.00000000000000	0.00000000000000	0.00000000000000	
14.61828500000000	50.81542700000000	767.33291299999996	58.07057900000000	0.34602000000000	0.00000000000000	0.10604500000000	0.00000000000000	0.00000000000000	0.00000000000000	0.00000000000000	0.00000000000000	0.00000000000000	0.00000000000000	26.86068600000000	0.00000000000000	0.00000000000000	0.00000000000000	0.00000000000000	
14.61994900000000	50.23343800000000	768.80228000000000	58.22953900000000	0.34482300000000	0.00000000000000	0.10607700000000	0.00000000000000	0.00000000000000	0.00000000000000	0.00000000000000	0.00000000000000	0.00000000000000	0.00000000000000	26.93606500000000	0.00000000000000	0.00000000000000	0.00000000000000	0.00000000000000	
